<?xml version="1.0" encoding="UTF-8"?><svg id="b" xmlns="http://www.w3.org/2000/svg" viewBox="0 0 200 49.3545"><g id="c"><g id="d"><path d="m36.8335,9.8298c-.8967-1.9315-2.1385-3.6559-3.7249-5.1734-1.6555-1.4486-3.6213-2.5866-5.8975-3.4143C24.7279.4834,22.1069.104,19.3477.104H0v7.76h18.6246c3.104,0,5.6907.7587,7.76,2.2763,1.9315,1.4486,2.8971,3.6558,2.8971,6.6218,0,2.6902-.9312,4.8629-2.7936,6.5184-2.0003,1.5865-4.6214,2.3798-7.8633,2.3798H.0001v23.6942h8.5877v-15.8301h9.7259c2.5522,0,5.1388-.3794,7.76-1.1381,2.4142-.7587,4.4835-1.8279,6.208-3.2074,1.7933-1.3795,3.2075-3.1385,4.2421-5.2768,1.0347-2.0693,1.552-4.4835,1.552-7.2427,0-2.6211-.4139-4.8974-1.2416-6.8288l-.0007-.0007ZM53.5945.1037h36.8346v7.8634h-36.8346V.1037Zm0,41.3867h36.73v7.8634h-36.73s0-7.8634,0-7.8634Zm0-20.9001h33.2125v7.76h-33.2125v-7.76Zm85.5662,28.7635h9.312L130.4693,0h-9.4154l10.45,29.4883,7.6568,19.8655Zm-38.0754,0h9.105l10.7605-26.2807-4.4491-11.7952-15.4164,38.0759Zm98.9141-.1034l-16.8645-21.521-5.8975,6.415,12.3125,15.1057h10.45l-.0005.0003ZM188.5145.1037l-23.4863,24.314V.1037h-8.4843v49.1459h8.4843v-11.5882L199.8961.1037h-11.3816Z" style="fill:#66bb90; stroke-width:0px;"/></g></g></svg>